<svg xmlns:inkscape="http://www.inkscape.org/namespaces/inkscape" xmlns:sodipodi="http://sodipodi.sourceforge.net/DTD/sodipodi-0.dtd" xmlns="http://www.w3.org/2000/svg" xmlns:svg="http://www.w3.org/2000/svg" version="1.1" id="Layer_1" x="0px" y="0px" viewBox="0 0 1200 1200" style="enable-background:new 0 0 1200 1200;" xml:space="preserve" sodipodi:docname="abc (1).svg" inkscape:version="1.1 (c68e22c387, 2021-05-23)" inkscape:export-filename="C:\Users\armok\Desktop\abc (1).png" inkscape:export-xdpi="96" inkscape:export-ydpi="96"><defs id="defs24"><inkscape:perspective sodipodi:type="inkscape:persp3d" inkscape:vp_x="-21.569877 : 365.87823 : 1" inkscape:vp_y="0 : 1038.838 : 0" inkscape:vp_z="2187.6593 : 365.87823 : 1" inkscape:persp3d-origin="1083.0448 : 158.11062 : 1" id="perspective2162"/></defs><sodipodi:namedview id="namedview22" pagecolor="#ffffff" bordercolor="#666666" borderopacity="1.0" inkscape:pageshadow="2" inkscape:pageopacity="0" inkscape:pagecheckerboard="false" showgrid="false" inkscape:zoom="0.3016989" inkscape:cx="669.54172" inkscape:cy="677.82813" inkscape:window-width="1360" inkscape:window-height="697" inkscape:window-x="-8" inkscape:window-y="-8" inkscape:window-maximized="1" inkscape:current-layer="Layer_1"/>
<style type="text/css" id="style2">
	.st0{fill:#FFFFFF;}
</style>

<g sodipodi:type="inkscape:box3d" id="g2164" style="fill:#1a1a1a" inkscape:perspectiveID="#perspective2162" inkscape:corner0="1.7427172 : 1.3729031 : 0 : 1" inkscape:corner7="0.75746932 : -0.021246564 : 0.25 : 1"><path sodipodi:type="inkscape:box3dside" id="path2176" style="fill:#e9e9ff;fill-rule:evenodd;stroke:none;stroke-linejoin:round" inkscape:box3dsidetype="11" d="M 532.08149,426.9813 803.8086,227.16041 V 948.61386 L 532.08149,910.92132 Z" points="803.8086,227.16041 803.8086,948.61386 532.08149,910.92132 532.08149,426.9813 "/><path sodipodi:type="inkscape:box3dside" id="path2166" style="fill:#353564;fill-rule:evenodd;stroke:none;stroke-linejoin:round" inkscape:box3dsidetype="6" d="m 381.17477,389.87024 v 528.0514 l 150.90672,-7.00032 V 426.9813 Z" points="381.17477,917.92164 532.08149,910.92132 532.08149,426.9813 381.17477,389.87024 "/><path sodipodi:type="inkscape:box3dside" id="path2174" style="fill:#afafde;fill-rule:evenodd;stroke:none;stroke-width:0.998862;stroke-linejoin:round" inkscape:box3dsidetype="13" d="M 381.17477,917.92164 606.95585,964.90035 803.8086,948.61386 532.08149,910.92132 Z" points="606.95585,964.90035 803.8086,948.61386 532.08149,910.92132 381.17477,917.92164 "/><path sodipodi:type="inkscape:box3dside" id="path2168" style="fill:#4d4d9f;fill-rule:evenodd;stroke:none;stroke-linejoin:round" inkscape:box3dsidetype="5" d="M 381.17477,389.87024 606.95585,140.82016 803.8086,227.16041 532.08149,426.9813 Z" points="606.95585,140.82016 803.8086,227.16041 532.08149,426.9813 381.17477,389.87024 "/><path sodipodi:type="inkscape:box3dside" id="path2172" style="fill:#d7d7ff;fill-rule:evenodd;stroke:none;stroke-linejoin:round" inkscape:box3dsidetype="14" d="M 606.95585,140.82016 V 964.90035 L 803.8086,948.61386 V 227.16041 Z" points="606.95585,964.90035 803.8086,948.61386 803.8086,227.16041 606.95585,140.82016 "/><path sodipodi:type="inkscape:box3dside" id="path2170" style="fill:#8686bf;fill-rule:evenodd;stroke:none;stroke-linejoin:round" inkscape:box3dsidetype="3" d="M 381.17477,389.87024 606.95585,140.82016 V 964.90035 L 381.17477,917.92164 Z" points="606.95585,140.82016 606.95585,964.90035 381.17477,917.92164 381.17477,389.87024 "/></g><path sodipodi:type="spiral" style="fill:none;fill-rule:evenodd;stroke:#000000" id="path2323" sodipodi:cx="599.93591" sodipodi:cy="609.87958" sodipodi:expansion="31.41" sodipodi:revolution="237.10001" sodipodi:radius="885.73907" sodipodi:argument="-19.221029" sodipodi:t0="0.059999999" d="m 599.93591,609.87958 c 0,0 0,0 0,0 0,0 0,0 0,0 0,0 0,0 0,0 0,0 0,0 0,0 0,0 0,0 0,0 0,0 0,0 0,0 0,0 0,0 0,0 0,0 0,0 0,0 0,0 0,0 0,0 0,0 0,0 0,0 0,0 0,0 0,0 0,0 0,0 0,0 0,0 0,0 0,0 0,0 0,0 0,0 0,0 0,0 0,0 0,0 0,0 0,0 0,0 0,0 0,0 0,0 0,0 0,0 0,0 0,0 0,0 0,0 0,0 0,0 0,0 0,0 0,0 0,0 0,0 0,0 0,0 0,0 0,0 0,0 0,0 0,0 0,0 0,0 0,0 0,0 0,0 0,0 0,0 0,0 0,0 0,0 0,0 0,0 0,0 0,0 0,0 0,0 0,0 0,0 0,0 0,0 0,0 0,0 0,0 0,0 0,0 0,0 0,0 0,0 0,0 0,0 0,0 0,0 0,0 0,0 0,0 0,0 0,0 0,0 0,0 0,0 0,0 0,0 0,0 0,0 0,0 0,0 0,0 0,0 0,0 0,0 0,0 0,0 0,0 0,0 0,0 0,0 0,0 0,0 0,0 0,0 0,0 0,0 0,0 0,0 0,0 0,0 0,0 0,0 0,0 0,0 0,0 0,0 0,0 0,0 0,0 0,0 0,0 0,0 0,0 0,0 0,0 0,0 0,0 0,0 0,0 0,0 0,0 0,0 0,0 0,0 0,0 0,0 0,0 0,0 0,0 0,0 0,0 0,0 0,0 0,0 0,0 0,0 0,0 0,0 0,0 0,0 0,0 0,0 0,0 0,0 0,0 0,0 0,0 0,0 0,0 0,0 0,0 0,0 0,0 0,0 0,0 0,0 0,0 0,0 0,0 0,0 0,0 0,0 0,0 0,0 0,0 0,0 0,0 0,0 0,0 0,0 0,0 0,0 0,0 0,0 0,0 0,0 0,0 0,0 0,0 0,0 0,0 0,0 0,0 0,0 0,0 0,0 0,0 0,0 0,0 0,0 0,0 0,0 0,0 0,0 0,0 0,0 0,0 0,0 0,0 0,0 0,0 0,0 0,0 0,0 0,0 0,0 0,0 0,0 0,0 0,0 0,0 0,0 0,0 0,0 0,0 0,0 0,0 0,0 0,0 0,0 0,0 0,0 0,0 0,0 0,0 0,0 0,0 0,0 0,0 0,0 0,0 0,0 0,0 0,0 0,0 0,0 0,0 0,0 0,0 0,0 0,0 0,0 0,0 0,0 0,0 0,0 0,0 0,0 0,0 0,0 0,0 0,0 0,0 0,0 0,0 0,0 0,0 0,0 0,0 0,0 0,0 0,0 0,0 0,0 0,0 0,0 0,0 0,0 0,0 0,0 0,0 0,0 0,0 0,0 0,0 0,0 0,0 0,0 0,0 0,0 0,0 0,0 0,0 0,0 0,0 0,0 0,0 0,0 0,0 0,0 0,0 0,0 0,0 0,0 0,0 0,0 0,0 0,0 0,0 0,0 0,0 0,0 0,0 0,0 0,0 0,0 0,0 0,0 0,0 0,0 0,0 0,0 0,0 0,0 0,0 0,0 0,0 0,0 0,0 0,0 0,0 0,0 0,0 0,0 0,0 0,0 0,0 0,0 0,0 0,0 0,0 0,0 0,0 0,0 0,0 0,0 0,0 0,0 0,0 0,0 0,0 0,0 0,0 0,0 0,0 0,0 0,0 0,0 0,0 0,0 0,0 0,0 0,0 0,0 0,0 0,0 0,0 0,0 0,0 0,0 0,0 0,0 0,0 0,0 0,0 0,0 0,0 0,0 0,0 0,0 0,0 0,0 0,0 0,0 0,0 0,0 0,0 0,0 0,0 0,0 0,0 0,0 0,0 0,0 0,0 0,0 0,0 0,0 0,0 0,0 0,0 0,0 0,0 0,0 0,0 0,0 0,0 0,0 0,0 0,0 0,0 0,0 0,0 0,0 0,0 0,0 0,0 0,0 0,0 0,0 0,0 0,0 0,0 0,0 0,0 0,0 0,0 0,0 0,0 0,0 0,0 0,0 0,0 0,0 0,0 0,0 0,0 0,0 0,0 0,0 0,0 0,0 0,0 0,0 0,0 0,0 0,0 0,0 0,0 0,0 0,0 0,0 0,0 0,0 0,0 0,0 0,0 0,0 0,0 0,0 0,0 0,0 0,0 0,0 0,0 0,0 0,0 0,0 0,0 0,0 0,0 0,0 0,0 0,0 0,0 0,0 0,0 0,0 0,0 0,0 0,0 0,0 0,0 0,0 0,0 0,0 0,0 0,0 0,0 0,0 0,0 0,0 0,0 0,0 0,0 0,0 0,0 0,0 0,0 0,0 0,0 0,0 0,0 0,0 0,0 0,0 0,0 0,0 0,0 0,0 0,0 0,0 0,0 0,0 0,0 0,0 0,0 0,0 0,0 0,0 0,0 0,0 0,0 0,0 0,0 0,0 0,0 0,0 0,0 0,0 0,0 0,0 0,0 0,0 0,0 0,0 0,0 0,0 0,0 0,0 0,0 0,0 0,0 0,0 0,0 0,0 0,0 0,0 0,0 0,0 0,0 0,0 0,0 0,0 0,0 0,0 0,0 0,0 0,0 0,0 0,0 0,0 0,0 0,0 0,0 0,0 0,0 0,0 0,0 0,0 0,0 0,0 0,0 0,0 0,0 0,0 0,0 0,0 10e-6,0 10e-6,0 0,0 0,0 0,0 0,0 0,0 0,0 0,0 0,-1e-5 0,-1e-5 10e-6,0 0,0 0,0 0,0 -10e-6,0 -10e-6,0 -10e-6,0 0,0 0,0 0,0 0,-1e-5 0,-1e-5 10e-6,0 0,0 0,0 0,0 -10e-6,0 -10e-6,0 -10e-6,0 0,0 0,0 0,-1e-5 0,0 0,0 10e-6,0 0,1e-5 0,1e-5 0,1e-5 -10e-6,0 -10e-6,0 -10e-6,0 0,0 0,0 0,-1e-5 0,0 10e-6,0 10e-6,0 0,1e-5 0,1e-5 0,1e-5 -10e-6,0 -10e-6,0 -10e-6,0 0,0 0,0 0,-1e-5 0,0 10e-6,0 10e-6,0 0,1e-5 0,1e-5 0,1e-5 0,10e-6 -10e-6,10e-6 -10e-6,0 -1e-5,0 -1e-5,-1e-5 0,-1e-5 0,0 10e-6,0 10e-6,0 0,1e-5 0,1e-5 0,1e-5 0,10e-6 -10e-6,10e-6 -10e-6,0 -1e-5,0 -1e-5,-1e-5 0,-1e-5 0,0 10e-6,0 10e-6,0 10e-6,0 10e-6,1e-5 0,2e-5 0,0 -10e-6,0 -2e-5,0 0,-10e-6 0,-2e-5 0,-2e-5 1e-5,-10e-6 2e-5,-10e-6 2e-5,0 10e-6,0 10e-6,1e-5 0,2e-5 0,0 -10e-6,0 -2e-5,0 -10e-6,-10e-6 0,-2e-5 0,-2e-5 1e-5,-10e-6 2e-5,-10e-6 3e-5,0 0,0 0,1e-5 0,2e-5 -10e-6,10e-6 -2e-5,10e-6 -3e-5,0 -10e-6,-10e-6 -10e-6,-2e-5 0,-3e-5 1e-5,-10e-6 2e-5,-10e-6 3e-5,0 10e-6,10e-6 10e-6,3e-5 0,4e-5 -10e-6,10e-6 -3e-5,0 -4e-5,0 -10e-6,-2e-5 -10e-6,-3e-5 0,-4e-5 2e-5,-10e-6 3e-5,-10e-6 4e-5,0 2e-5,10e-6 2e-5,3e-5 0,4e-5 -10e-6,10e-6 -3e-5,10e-6 -4e-5,0 -10e-6,-10e-6 -10e-6,-3e-5 0,-5e-5 10e-6,-10e-6 4e-5,-10e-6 5e-5,0 1e-5,2e-5 1e-5,4e-5 0,6e-5 -2e-5,1e-5 -4e-5,1e-5 -6e-5,0 -10e-6,-2e-5 -10e-6,-5e-5 0,-6e-5 2e-5,-2e-5 5e-5,-2e-5 7e-5,0 10e-6,10e-6 10e-6,5e-5 0,6e-5 -2e-5,2e-5 -6e-5,2e-5 -7e-5,0 -2e-5,-2e-5 -2e-5,-5e-5 0,-7e-5 2e-5,-2e-5 5e-5,-2e-5 7e-5,0 3e-5,2e-5 3e-5,6e-5 0,8e-5 -2e-5,3e-5 -6e-5,2e-5 -8e-5,0 -3e-5,-2e-5 -3e-5,-7e-5 0,-9e-5 2e-5,-3e-5 7e-5,-3e-5 10e-5,0 2e-5,3e-5 2e-5,7e-5 -10e-6,10e-5 -3e-5,3e-5 -8e-5,3e-5 -1.1e-4,0 -3e-5,-3e-5 -3e-5,-8e-5 1e-5,-1.1e-4 3e-5,-4e-5 9e-5,-4e-5 1.2e-4,0 3e-5,3e-5 3e-5,9e-5 0,1.3e-4 -4e-5,3e-5 -10e-5,3e-5 -1.4e-4,-10e-6 -4e-5,-3e-5 -4e-5,-10e-5 0,-1.4e-4 4e-5,-4e-5 1.1e-4,-4e-5 1.5e-4,0 5e-5,5e-5 5e-5,1.2e-4 0,1.6e-4 -4e-5,5e-5 -1.2e-4,5e-5 -1.7e-4,0 -5e-5,-5e-5 -4e-5,-1.3e-4 0,-1.8e-4 6e-5,-5e-5 1.4e-4,-5e-5 1.9e-4,0 6e-5,6e-5 6e-5,1.5e-4 0,2e-4 -6e-5,6e-5 -1.5e-4,6e-5 -2.1e-4,0 -6e-5,-6e-5 -6e-5,-1.6e-4 0,-2.2e-4 7e-5,-7e-5 1.8e-4,-6e-5 2.4e-4,0 7e-5,7e-5 6e-5,1.8e-4 0,2.5e-4 -8e-5,7e-5 -2e-4,7e-5 -2.7e-4,0 -7e-5,-8e-5 -7e-5,-2.1e-4 10e-6,-2.8e-4 8e-5,-8e-5 2.1e-4,-8e-5 2.9e-4,0 8e-5,9e-5 8e-5,2.3e-4 0,3.1e-4 -9e-5,9e-5 -2.4e-4,9e-5 -3.3e-4,0 -9e-5,-10e-5 -9e-5,-2.5e-4 0,-3.5e-4 10e-5,-9e-5 2.7e-4,-9e-5 3.7e-4,1e-5 10e-5,10e-5 10e-5,2.8e-4 -10e-6,3.8e-4 -1.1e-4,1.1e-4 -2.9e-4,1.1e-4 -4e-4,0 -1.2e-4,-1.2e-4 -1.1e-4,-3.1e-4 0,-4.3e-4 1.3e-4,-1.2e-4 3.3e-4,-1.2e-4 4.5e-4,10e-6 1.3e-4,1.3e-4 1.3e-4,3.4e-4 0,4.7e-4 -1.4e-4,1.4e-4 -3.7e-4,1.3e-4 -5e-4,-10e-6 -1.5e-4,-1.4e-4 -1.4e-4,-3.8e-4 0,-5.2e-4 1.6e-4,-1.5e-4 4.1e-4,-1.5e-4 5.6e-4,0 1.6e-4,1.6e-4 1.5e-4,4.3e-4 -10e-6,5.9e-4 -1.7e-4,1.7e-4 -4.5e-4,1.6e-4 -6.2e-4,-1e-5 -1.7e-4,-1.8e-4 -1.6e-4,-4.7e-4 1e-5,-6.5e-4 1.9e-4,-1.8e-4 5e-4,-1.8e-4 6.9e-4,10e-6 1.9e-4,2e-4 1.9e-4,5.3e-4 -10e-6,7.2e-4 -2.1e-4,2.1e-4 -5.6e-4,2e-4 -7.6e-4,-10e-6 -2.2e-4,-2.2e-4 -2.1e-4,-5.8e-4 10e-6,-8e-4 2.3e-4,-2.3e-4 6.1e-4,-2.2e-4 8.4e-4,10e-6 2.4e-4,2.5e-4 2.3e-4,6.5e-4 -1e-5,8.9e-4 -2.6e-4,2.6e-4 -6.8e-4,2.4e-4 -9.4e-4,-10e-6 -2.6e-4,-2.7e-4 -2.5e-4,-7.2e-4 2e-5,-9.9e-4 2.8e-4,-2.8e-4 7.6e-4,-2.7e-4 0.001,2e-5 2.9e-4,3e-4 2.8e-4,7.9e-4 -2e-5,0.001 -3.1e-4,3.1e-4 -8.4e-4,3e-4 -0.001,-1e-5 -3.3e-4,-3.4e-4 -3.2e-4,-8.9e-4 2e-5,-0.001 3.5e-4,-3.4e-4 9.3e-4,-3.3e-4 0.001,2e-5 3.7e-4,3.7e-4 3.5e-4,9.8e-4 -10e-6,0.001 -3.9e-4,3.9e-4 -0.001,3.7e-4 -0.001,-2e-5 -4e-4,-4.1e-4 -3.9e-4,-0.001 2e-5,-0.001 4.3e-4,-4.3e-4 0.001,-4.1e-4 0.002,2e-5 4.5e-4,4.5e-4 4.3e-4,0.001 -2e-5,0.002 -4.8e-4,4.7e-4 -0.001,4.5e-4 -0.002,-3e-5 -5e-4,-5e-4 -4.7e-4,-0.001 2e-5,-0.002 5.3e-4,-5.3e-4 0.001,-5e-4 0.002,2e-5 5.4e-4,5.6e-4 5.2e-4,0.001 -3e-5,0.002 -5.9e-4,5.8e-4 -0.002,5.5e-4 -0.002,-3e-5 -6e-4,-6.1e-4 -5.8e-4,-0.002 3e-5,-0.002 6.5e-4,-6.4e-4 0.002,-6.1e-4 0.002,3e-5 6.8e-4,6.8e-4 6.5e-4,0.002 -3e-5,0.002 -7.2e-4,7.1e-4 -0.002,6.8e-4 -0.003,-3e-5 -7.4e-4,-7.5e-4 -7.1e-4,-0.002 4e-5,-0.003 7.9e-4,-7.8e-4 0.002,-7.4e-4 0.003,4e-5 8.2e-4,8.3e-4 7.9e-4,0.002 -4e-5,0.003 -8.7e-4,8.7e-4 -0.002,8.3e-4 -0.003,-4e-5 -9e-4,-9.2e-4 -8.6e-4,-0.002 5e-5,-0.003 9.7e-4,-9.5e-4 0.003,-9.1e-4 0.004,5e-5 10e-4,0.001 9.6e-4,0.003 -5e-5,0.004 -0.001,0.001 -0.003,10e-4 -0.004,-5e-5 -0.001,-0.001 -0.001,-0.003 6e-5,-0.004 0.001,-0.001 0.003,-0.001 0.004,6e-5 0.001,0.001 0.001,0.003 -6e-5,0.005 -0.001,0.001 -0.003,0.001 -0.005,-7e-5 -0.001,-0.001 -0.001,-0.004 7e-5,-0.005 0.001,-0.001 0.004,-0.001 0.005,7e-5 0.001,0.002 0.001,0.004 -7e-5,0.005 -0.002,0.002 -0.004,0.001 -0.006,-8e-5 -0.002,-0.002 -0.002,-0.004 8e-5,-0.006 0.002,-0.002 0.005,-0.002 0.006,9e-5 0.002,0.002 0.002,0.005 -9e-5,0.007 -0.002,0.002 -0.005,0.002 -0.007,-10e-5 -0.002,-0.002 -0.002,-0.005 1e-4,-0.007 0.002,-0.002 0.006,-0.002 0.008,1.1e-4 0.002,0.002 0.002,0.006 -1.2e-4,0.008 -0.002,0.002 -0.006,0.002 -0.008,-1.3e-4 -0.002,-0.002 -0.002,-0.007 1.3e-4,-0.009 0.003,-0.003 0.007,-0.002 0.009,1.4e-4 0.003,0.003 0.003,0.007 -1.4e-4,0.01 -0.003,0.003 -0.008,0.003 -0.0103,-1.5e-4 -0.003,-0.003 -0.003,-0.008 1.6e-4,-0.0108 0.003,-0.003 0.008,-0.003 0.0113,1.7e-4 0.003,0.003 0.003,0.009 -1.7e-4,0.0119 -0.003,0.003 -0.009,0.003 -0.0125,-1.8e-4 -0.004,-0.004 -0.003,-0.01 1.9e-4,-0.0131 0.004,-0.004 0.01,-0.004 0.0137,2e-4 0.004,0.004 0.004,0.0105 -2.1e-4,0.0144 -0.004,0.004 -0.011,0.004 -0.0151,-2.3e-4 -0.004,-0.004 -0.004,-0.0116 2.4e-4,-0.0158 0.005,-0.004 0.0121,-0.004 0.0166,2.5e-4 0.005,0.005 0.005,0.0127 -2.6e-4,0.0174 -0.005,0.005 -0.0133,0.005 -0.0182,-2.8e-4 -0.005,-0.005 -0.005,-0.014 2.9e-4,-0.0191 0.006,-0.005 0.0146,-0.005 0.02,3e-4 0.006,0.006 0.005,0.0154 -3.2e-4,0.021 -0.006,0.006 -0.0161,0.006 -0.022,-3.3e-4 -0.006,-0.006 -0.006,-0.0169 3.6e-4,-0.0231 0.007,-0.007 0.0177,-0.006 0.0242,3.7e-4 0.007,0.007 0.007,0.0185 -3.9e-4,0.0253 -0.007,0.007 -0.0194,0.007 -0.0265,-4.1e-4 -0.008,-0.008 -0.007,-0.0203 4.3e-4,-0.0278 0.008,-0.008 0.0213,-0.008 0.0291,4.5e-4 0.008,0.008 0.008,0.0223 -4.7e-4,0.0305 -0.009,0.009 -0.0234,0.008 -0.032,-4.9e-4 -0.009,-0.009 -0.009,-0.0245 5.2e-4,-0.0335 0.01,-0.01 0.0256,-0.009 0.0351,5.5e-4 0.01,0.0101 0.009,0.0268 -5.7e-4,0.0367 -0.0106,0.0104 -0.0281,0.01 -0.0385,-6.1e-4 -0.0109,-0.0111 -0.0104,-0.0294 6.4e-4,-0.0403 0.0116,-0.0114 0.0308,-0.0109 0.0422,6.6e-4 0.012,0.0122 0.0114,0.0323 -7e-4,0.0442 -0.0127,0.0125 -0.0338,0.0119 -0.0462,-7.3e-4 -0.0131,-0.0134 -0.0125,-0.0354 7.7e-4,-0.0484 0.014,-0.0137 0.037,-0.0131 0.0507,8e-4 0.0144,0.0146 0.0137,0.0388 -8.4e-4,0.053 -0.0153,0.015 -0.0406,0.0143 -0.0555,-8.8e-4 -0.0157,-0.016 -0.015,-0.0425 9.2e-4,-0.0581 0.0168,-0.0164 0.0445,-0.0157 0.0608,9.7e-4 0.0172,0.0176 0.0164,0.0465 -0.001,0.0636 -0.0184,0.018 -0.0487,0.0172 -0.0666,-0.001 -0.0188,-0.0192 -0.018,-0.0509 0.001,-0.0697 0.0201,-0.0197 0.0533,-0.0188 0.0729,0.001 0.0206,0.021 0.0197,0.0557 -0.001,0.0762 -0.022,0.0216 -0.0583,0.0206 -0.0797,-0.001 -0.0226,-0.023 -0.0215,-0.061 0.001,-0.0834 0.0241,-0.0236 0.0638,-0.0225 0.0873,0.001 0.0247,0.0252 0.0235,0.0667 -0.001,0.0913 -0.0263,0.0258 -0.0698,0.0246 -0.0954,-0.002 -0.027,-0.0276 -0.0257,-0.073 0.002,-0.0998 0.0288,-0.0282 0.0763,-0.0269 0.10438,0.002 0.0295,0.0301 0.0281,0.0798 -0.002,0.10914 -0.0315,0.0309 -0.0835,0.0294 -0.11411,-0.002 -0.0323,-0.033 -0.0308,-0.0873 0.002,-0.11931 0.0344,-0.0337 0.0912,-0.0322 0.12473,0.002 0.0353,0.036 0.0336,0.0954 -0.002,0.13039 -0.0376,0.0368 -0.0997,0.0351 -0.1363,-0.002 -0.0385,-0.0393 -0.0367,-0.1042 0.002,-0.14247 0.0411,-0.0402 0.10891,-0.0384 0.1489,0.002 0.0421,0.043 0.0401,0.11383 -0.003,0.15562 -0.0449,0.044 -0.11895,0.0419 -0.16263,-0.003 -0.0459,-0.0469 -0.0438,-0.1243 0.003,-0.16994 0.049,-0.048 0.12989,-0.0457 0.17758,0.003 0.0502,0.0512 0.0478,0.13572 -0.003,0.18554 -0.0535,0.0524 -0.1418,0.0499 -0.19386,-0.003 -0.0547,-0.0559 -0.0522,-0.14815 0.003,-0.20253 0.0584,-0.0572 0.15477,-0.0545 0.21157,0.004 0.0597,0.0611 0.0569,0.16167 -0.004,0.22101 -0.0638,0.0624 -0.16887,0.0595 -0.23086,-0.004 -0.0652,-0.0666 -0.0621,-0.17639 0.004,-0.24112 0.0696,-0.0681 0.18423,-0.0648 0.25184,0.004 0.0711,0.0727 0.0677,0.19239 -0.004,0.263 -0.0759,0.0742 -0.20092,0.0707 -0.27465,-0.005 -0.0775,-0.0793 -0.0738,-0.20981 0.005,-0.2868 0.0828,-0.0809 0.21908,-0.0771 0.29946,0.005 0.0845,0.0864 0.0805,0.22875 -0.005,0.31267 -0.0902,0.0882 -0.23882,0.084 -0.32644,-0.006 -0.0921,-0.0942 -0.0877,-0.24933 0.006,-0.3408 0.0983,-0.0961 0.26028,-0.0916 0.35577,0.006 0.10032,0.10263 0.0956,0.2717 -0.006,0.37137 -0.10713,0.10471 -0.2836,0.0997 -0.38763,-0.007 -0.10929,-0.11182 -0.1041,-0.29601 0.007,-0.40459 0.11671,-0.11405 0.30894,-0.10863 0.42226,0.007 0.11902,0.1218 0.11336,0.32242 -0.008,0.44067 -0.12711,0.1242 -0.33646,0.11829 -0.45986,-0.008 -0.1296,-0.13264 -0.12343,-0.3511 0.008,-0.47986 0.13841,-0.13522 0.36635,-0.12878 0.5007,0.009 0.14108,0.14441 0.13435,0.38224 -0.009,0.52242 -0.15068,0.14718 -0.39881,0.14016 -0.54505,-0.01 -0.15354,-0.1572 -0.14622,-0.41606 0.01,-0.56862 0.164,-0.16017 0.43405,-0.15252 0.59319,0.0104 0.16707,0.17108 0.15909,0.45277 -0.0109,0.61878 -0.17845,0.17425 -0.47228,0.16592 -0.64543,-0.0114 -0.18174,-0.18613 -0.17305,-0.49259 0.0119,-0.67319 0.19413,-0.18954 0.51377,-0.18047 0.70211,0.0124 0.19767,0.20246 0.18821,0.53581 -0.013,0.73222 -0.21114,0.20613 -0.55877,0.19626 -0.76359,-0.0136 -0.21494,-0.22019 -0.20464,-0.58268 0.0142,-0.79627 0.22961,-0.22411 0.60759,-0.21336 0.83029,0.0148 0.23366,0.2394 0.22245,0.63351 -0.0155,0.86571 -0.24962,0.24361 -0.66052,0.23192 -0.9026,-0.0161 -0.25396,-0.26024 -0.24177,-0.68862 0.0169,-0.941 0.27131,-0.26474 0.7179,-0.25202 0.98099,0.0176 0.27596,0.28283 0.2627,0.74836 -0.0184,1.02261 -0.29483,0.28765 -0.78009,0.27382 -1.06595,-0.0192 -0.29981,-0.30731 -0.28539,-0.81311 0.02,-1.11106 0.32031,-0.31247 0.84749,-0.29743 1.15801,0.0209 0.32565,0.33384 0.30997,0.88327 -0.0218,1.20689 -0.34792,0.33936 -0.9205,0.32301 -1.25776,-0.0228 -0.35363,-0.36258 -0.33658,-0.95927 0.0238,-1.31071 0.37783,-0.36848 0.9996,-0.35071 1.3658,0.0248 0.38394,0.39371 0.36542,1.04158 -0.0259,1.42315 -0.41022,0.40002 -1.08526,0.3807 -1.48281,-0.027 -0.41675,-0.42741 -0.39662,-1.13071 0.0282,-1.54489 0.4453,-0.43417 1.17801,-0.41318 1.60949,0.0294 0.45228,0.4639 0.43041,1.22721 -0.0307,1.6767 -0.48326,0.47112 -1.2784,0.44832 -1.74662,-0.032 -0.49072,-0.50341 -0.46697,-1.33166 0.0334,-1.81937 0.52436,-0.51111 1.38706,-0.48635 1.89503,0.0348 0.53233,0.54616 0.50653,1.44469 -0.0363,1.97375 -0.56883,0.55439 -1.50464,0.52751 -2.05563,-0.0379 -0.57733,-0.59241 -0.54933,-1.56699 0.0395,-2.14079 0.61694,-0.60119 1.63184,-0.57202 2.22936,0.0412 0.62601,0.64244 0.59562,1.69927 -0.043,2.32147 -0.66898,0.65181 -1.76941,0.62015 -2.41726,-0.0448 -0.67866,-0.69656 -0.64568,-1.84235 0.0467,-2.51688 0.72526,-0.70655 1.9182,-0.6722 2.62047,0.0487 0.73557,0.75508 0.69979,1.99706 -0.0508,2.72817 -0.7861,0.76574 -2.07906,0.72847 -2.84016,-0.0529 -0.7971,-0.81835 -0.75829,-2.16431 0.0552,-2.95659 0.85188,-0.8297 2.25295,-0.78928 3.07764,0.0575 0.8636,0.88674 0.82151,2.34509 -0.0599,3.20348 -0.92298,0.89883 -2.44088,0.855 -3.3343,-0.0625 -0.93545,-0.96065 -0.88981,-2.54045 0.0651,-3.47028 0.99979,-0.97351 2.64394,-0.926 3.61161,0.0679 1.01308,1.04049 0.96361,2.75152 -0.0707,3.75852 -1.08279,1.05419 -2.86333,1.0027 -3.91121,-0.0737 -1.09692,-1.12676 -1.04331,-2.97953 0.0768,-4.06989 1.17245,-1.14133 3.1003,-1.08553 4.23481,0.08 1.18747,1.21992 1.12938,3.22578 -0.0833,4.40617 -1.26926,1.23542 -3.35619,1.17496 -4.58425,-0.0868 -1.28524,-1.32053 -1.22231,-3.49169 0.0905,-4.76928 1.3738,-1.337 3.63248,-1.27151 4.96153,0.0942 1.39078,1.42915 1.32262,3.77876 -0.0981,5.16128 -1.48666,1.44665 -3.93074,1.37572 -5.36881,-0.10221 -1.50469,-1.54639 -1.43088,-4.08862 0.10645,-5.5844 1.60846,-1.56498 4.25265,-1.48818 5.80837,0.11087 1.6276,1.67293 1.54769,4.42302 -0.11546,6.04101 -1.7399,1.69266 -4.6,1.60952 -6.28267,-0.12023 -1.76022,-1.80946 -1.67372,-4.78383 0.12519,-6.53368 1.88171,-1.83039 4.97477,-1.7404 6.79438,0.13035 1.90327,1.95676 1.80966,5.17307 -0.13571,7.06515 -2.03469,1.97895 -5.37902,1.88157 -7.34635,-0.14129 -2.05754,-2.11563 -1.95625,-5.59289 0.1471,-7.63837 2.19967,-2.13915 5.81498,-2.03379 7.94161,0.15313 2.22389,2.28695 2.11431,6.04561 -0.1594,8.25649 -2.37758,2.31188 -6.28508,2.19791 -8.58345,-0.16592 -2.40322,-2.47168 -2.28471,-6.53371 0.1727,-8.92292 2.56937,-2.49807 6.79186,-2.37482 9.27537,0.17974 2.59653,2.67081 2.46837,7.05987 -0.18706,9.64129 -2.77611,2.69875 -7.33811,2.56549 -10.02117,-0.19466 -2.80485,-2.88544 -2.66628,-7.62696 0.20258,-10.41552 2.99892,-2.91499 7.92679,-2.77093 10.82487,0.21079 3.02931,3.11672 2.87953,8.23802 -0.21933,11.24979 -3.23899,3.14796 -8.56107,2.99225 -11.69083,-0.22821 -3.27111,-3.36591 -3.10924,-8.89637 0.23743,-12.14859 3.49763,-3.39892 9.24437,-3.23065 12.62368,0.24701 3.53156,3.63433 3.35665,9.60553 -0.25696,13.11674 -3.77621,3.6692 -9.98034,3.48739 -13.62842,-0.2673 -3.81204,-3.92344 -3.62307,-10.36929 0.27804,-14.1594 4.07622,-3.96025 10.77289,-3.76385 14.71039,0.2892 4.11402,4.23475 3.90991,11.19168 -0.30079,15.28211 -4.39924,4.27357 -11.62623,4.06145 -15.87532,-0.31284 -4.4391,-4.56991 -4.21868,-12.07708 0.32535,-16.49078 4.74699,-4.61084 12.54483,-4.3818 17.12932,0.33834 4.789,4.93069 4.55101,13.0301 -0.35183,17.79177 -5.12127,4.97382 -13.53353,4.72653 -18.47899,-0.36584 -5.16553,-5.31899 -4.90861,-14.05578 0.38039,-19.19189 5.52407,-5.36439 14.5975,-5.09747 19.93138,0.3955 5.57065,5.7368 5.29335,15.15941 -0.4112,20.69842 -5.95746,5.78458 -15.74224,5.49651 -21.494,-0.42749 -6.00645,-6.18632 -5.70721,-16.34673 0.4444,-22.31915 6.42369,-6.23656 16.97368,-5.92573 23.17494,0.46196 6.47519,6.66985 6.15233,17.62387 -0.48019,24.06245 -6.92515,6.72265 -18.29815,6.38732 -24.98284,-0.49912 -6.97925,-7.18989 -6.63097,-18.99737 0.51877,-25.93726 7.46442,-7.24532 19.72244,-6.88362 26.92694,0.53917 7.52121,7.74908 7.14559,20.47425 -0.56033,27.95314 -8.04425,7.80724 -21.25379,7.41718 -29.01716,-0.58231 -8.1038,-8.35028 -7.69876,-22.06202 0.60512,-30.12034 8.66757,-8.41126 22.89997,-7.99068 31.26407,0.62878 8.72999,8.99653 8.2933,23.76871 -0.65335,32.44982 -9.33754,9.0604 -24.6693,8.607 -33.67903,-0.67884 -9.4029,-9.69107 -8.93218,-25.60291 0.70529,-34.95329 10.05753,-9.75792 26.57067,-9.26923 36.27415,0.73274 10.12592,10.4374 9.6186,27.57381 -0.76121,37.64329 -10.83114,10.50733 -28.61357,9.98069 -39.0624,-0.79076 -10.90263,-11.23925 -10.35596,-29.69124 0.82142,-40.53325 11.66222,-11.3123 30.80816,-10.74487 42.05764,0.85323 11.73687,12.10059 11.14791,31.96572 -0.88622,43.63748 -12.55489,12.17684 -33.16533,11.56557 -45.27471,-0.92044 -12.63276,-13.02569 -11.99835,-34.40848 0.95595,-46.97134 13.51355,-13.1052 35.69669,-12.44681 48.72945,0.99278 13.59471,14.01908 12.91146,37.03153 -1.03098,50.55119 -14.54291,14.10191 -38.41464,13.3929 -52.43879,-1.0706 -14.62741,-15.08566 -13.89169,-39.84771 1.11169,-54.39455 15.648,-15.17184 41.33247,-14.40845 56.42084,1.1543 15.73587,16.23061 14.9438,42.87074 -1.19849,58.52014 -16.83419,16.32017 -44.46436,15.49837 -60.69496,-1.24432 -16.92546,-17.45949 -16.07286,-46.11528 1.29184,-62.94794 18.10724,-17.55246 47.82546,-16.66794 65.2818,1.34111 18.20191,18.77823 17.28431,49.59697 -1.3922,67.69933 -19.47327,18.87461 -51.43195,17.92273 -70.20344,-1.44517 -19.57134,-20.19318 -18.58396,-53.33258 1.50009,-72.79712 20.93883,-20.29295 55.30111,-19.26878 75.48345,1.55702 21.04029,21.71111 19.978,57.33993 -1.61604,78.26566 -22.51092,21.81424 -59.45142,20.71246 -81.14703,-1.67722 -22.61572,-23.33924 -21.47303,-61.63811 1.74065,-84.13098 24.19702,-23.44568 63.90257,-22.26062 87.22104,1.80638 24.30509,25.0853 23.07614,66.24749 -1.87452,90.42086 -26.00511,25.19496 -68.67562,23.92054 -93.7342,-1.94515 -26.11634,-26.95753 -24.79483,-71.1898 2.01834,-97.16493 27.94369,-27.07032 73.793,-25.70003 100.71712,2.09419 28.05797,28.96472 26.63717,76.48825 -2.1728,104.39487 -30.02185,29.08049 -79.27871,27.60736 -108.2025,-2.25426 -30.13904,-31.11628 -28.61173,-82.1676 2.33867,-112.14442 32.24929,-31.23485 85.1583,-29.65144 116.22522,2.42613 32.36919,33.4222 30.72768,88.25426 -2.51676,120.44962 -34.63636,33.54337 -91.45907,31.84169 -124.82251,-2.61065 -34.75873,-35.89318 -32.99476,-94.77643 2.70794,-129.34892 37.19409,-36.01668 98.21014,-34.18821 134.03407,2.80872 37.31865,38.54061 35.4234,101.76416 -2.91314,138.88332 -39.93426,38.66614 -105.44255,36.70176 -143.90223,-3.0213 -40.06069,-41.37665 -38.02473,-109.24952 3.13333,-149.09654 42.86943,-41.50387 113.18942,-39.39381 154.47218,3.24939 42.99733,44.41428 40.81056,117.26672 -3.3696,160.03523 -46.01298,44.54277 -121.48605,42.2766 -165.79204,-3.4941 -46.14191,-47.66732 -43.79355,-125.8522 3.62306,-171.74911 49.37917,-47.79658 130.37009,-45.36314 177.91317,3.75661 49.50862,51.15049 46.98713,135.04483 -3.89493,184.29117 -52.98324,51.27998 -139.88166,48.66736 -190.89028,-4.03815 -53.11263,-54.87951 -50.40569,-144.88604 4.18647,-197.71792 56.84141,-55.00861 150.06355,-52.20405 204.78172,4.34006 56.97004,58.87113 54.06447,155.41999 -4.49909,212.08957 -60.97095,58.99911 -160.96132,55.98901 -219.64962,-4.66375 -61.09807,-63.1432 -57.9798,-166.69373 4.83423,-227.47028 65.39029,-63.26925 172.62356,-60.03905 235.56023,5.01074 65.51503,67.71471 62.16902,178.75738 -5.19348,243.92842 -70.11903,67.83791 -185.10198,64.37206 -252.58409,-5.38266 -70.24044,-72.60592 -66.65061,-191.66435 5.57849,-261.5368 75.17811,-72.72525 198.45172,-69.00715 270.79639,5.78121 75.29506,77.83842 71.44427,205.47154 -5.99106,280.37301 -80.58976,77.9527 -212.73149,73.96463 -290.27716,-6.20825 -80.70104,-83.43517 -76.57096,-220.23952 6.43307,-300.51966 86.37772,-83.5431 228.0038,-79.26612 311.11166,6.66575 86.48196,89.42063 82.05302,236.0328 -6.90656,322.06469 -92.56722,89.5208 -244.33522,84.93468 -333.39065,-7.15578 -92.66289,-95.82087 -87.91421,-252.92006 7.41369,-345.10179 99.18514,-95.91164 261.79662,-90.99482 357.21077,7.68059 99.27056,102.66362 94.17984,270.97445 -7.95676,369.73065 -106.2601,102.74322 -280.46344,97.47265 -382.6749,-8.24254 C 291.56814,686.86255 297.0247,506.56718 406.43975,400.78355 520.2623,290.73871 706.85573,296.3876 816.33227,409.62774 930.21386,527.42437 924.36607,720.52864 807.17153,833.82275 685.26662,951.67046 485.43183,945.61701 368.19139,824.33451 246.24398,698.18277 252.51009,491.39057 378.01844,370.07088 508.5601,243.88584 722.54395,250.37183 848.08017,380.24843 978.64525,515.32775 971.93192,736.74513 837.54004,866.6396 697.77052,1001.7318 468.66987,994.78337 334.27082,855.7244 194.49979,711.10719 201.69118,474.06543 345.57399,335.01073 495.2015,190.4041 740.45057,197.84672 884.31688,346.7152 1033.9209,501.52087 1026.2186,755.25207 872.19734,904.09102 712.0402,1058.8594 449.54317,1050.8886 295.56537,891.54218 135.46013,725.85466 143.70846,454.29891 308.55819,295.01067 479.96077,129.39063 760.87757,137.92584 925.65338,308.46266 1096.9719,485.77096 1088.1402,776.36088 911.72653,946.80709 728.31574,1124.0137 427.73056,1114.8755 251.42524,932.38918 68.134745,742.67276 77.589719,431.75984 266.35094,249.40062 462.58263,59.824294 784.16648,69.606652 972.78063,264.8514 1168.8513,467.81476 1158.7306,800.42373 956.78693,995.5003 746.86856,1198.2804 402.86893,1187.8101 201.11579,978.94523 -8.5958434,761.84138 2.2358684,406.07381 218.25128,197.42312 442.77849,-19.449178 810.70332,-8.244062 1026.4796,215.15869 1250.749,447.35474 1239.1581,827.83861 1008.1237,1050.9759 768.00546,1282.8864 374.54795,1270.8967 143.80688,1031.9785 -95.996579,783.67677 -83.594946,376.81779 163.46724,138.22233 420.2223,-109.73384 840.9242,-96.906556 1087.6326,158.56808 c 256.377,265.48668 243.1099,700.487 -21.0542,955.57522 C 792.07292,1379.2176 342.30419,1365.4961 78.560954,1092.3567 -195.49601,808.53614 -181.30517,343.51409 101.10447,70.831812 394.54585,-212.50223 875.3215,-197.82646 1157.2358,94.157703 1452.7067,400.18264 1437.623,892.02305 1133.1013,1186.0294 816.72524,1491.4807 308.25857,1475.8828 4.3196664,1161.0591 -311.43818,833.99329 -295.30908,308.3568 30.153567,-5.8392298 368.2585,-332.2399 911.62553,-315.56212 1236.4135,20.887227 1442.706,234.58661 1525.9201,546.45571 1456.6108,834.91716"/></svg>
